# xmcd
#
# Track frame offsets:
#	150
#	10507
#	19485
#	30000
#	40885
#	50972
#	60035
#	69615
#	79635
#	94377
#	107252
#	117935
#	129775
#	144255
#	156895
#	170077
#	182505
#	196157
#	207232
#	220370
#	232335
#	241802
#	249810
#	259052
#
# Disc length: 3577 seconds
#
# Revision: 3
# Processed by: cddbd v1.4PL0 Copyright (c) Steve Scherf et al.
# Submitted via: MusicManager 7.0.1.0 
#
DISCID=3a0df718
DTITLE=Various Artist - 101 Blues and Soul Classics 4
DYEAR=1989
DGENRE=
TTITLE0=Domino, Fats  - Ain't That A Shame
TTITLE1=Domino, Fats  - I Want To Walk You Home
TTITLE2=Domino, Fats  - Blue Berry Hill
TTITLE3=Dorsey, Lee  - Holy Cow
TTITLE4=Dorsey, Lee  - Get Out Of My Life Woman
TTITLE5=Smith, Huey 'Piano' and Clowns - Don' You Just Know It
TTITLE6=Brown, James  - Papa's Got A Brand New Bag
TTITLE7=Errisson, King  - Disco Congo Dance
TTITLE8=Burke, Solomon  - Pleas Don't Say Goodbye To Me
TTITLE9=ZZ Hill - Choking Kind
TTITLE10=ZZ Hill - Faithfull And True
TTITLE11=North, Freddie  - She's All I Go
TTITLE12=North, Freddie  - You And Me Together Forever
TTITLE13=Commodores, The - Keep On Dancing
TTITLE14=Thomas, Irma  - She'll Never Be Your Wife
TTITLE15=White Head, Charlie - Love Being Your Fool
TTITLE16=Elbert, Donnie  - Can't Get Over Losing You
TTITLE17=Duke, Doris  - Feet Starts Walking
TTITLE18=Sledge, Percy  - When A Man Loves A Woman
TTITLE19=Lightning Slim - Rooster Blues
TTITLE20=Cooper, Les  - Wiggle Wobble
TTITLE21=Waters, Muddy  - I'm Ready
TTITLE22=Howlin' Wolf - Somebody WalkingIn My House
TTITLE23=Hooker, John Lee  - Frisco Blues
EXTD=
EXTT0=
EXTT1=
EXTT2=
EXTT3=
EXTT4=
EXTT5=
EXTT6=
EXTT7=
EXTT8=
EXTT9=
EXTT10=
EXTT11=
EXTT12=
EXTT13=
EXTT14=
EXTT15=
EXTT16=
EXTT17=
EXTT18=
EXTT19=
EXTT20=
EXTT21=
EXTT22=
EXTT23=
PLAYORDER=
